<mxfile host="app.diagrams.net" agent="Mozilla/5.0 (Windows NT 10.0; Win64; x64) AppleWebKit/537.36 (KHTML, like Gecko) Chrome/129.0.0.0 Safari/537.36" version="24.7.12">
  <diagram name="Halaman-1" id="QPw88vKEX0Kn_g5e713d">
    <mxGraphModel dx="1167" dy="619" grid="1" gridSize="10" guides="1" tooltips="1" connect="1" arrows="1" fold="1" page="1" pageScale="1" pageWidth="827" pageHeight="1169" math="0" shadow="0">
      <root>
        <mxCell id="0" />
        <mxCell id="1" parent="0" />
        <mxCell id="wjgCKjhuGCVVVPZoO-Zn-10" value="&lt;font style=&quot;font-size: 18px;&quot;&gt;PERSON&lt;/font&gt;" style="rounded=0;whiteSpace=wrap;html=1;fillStyle=hatch;fillColor=none;" parent="1" vertex="1">
          <mxGeometry x="280" y="450" width="220" height="70" as="geometry" />
        </mxCell>
        <mxCell id="YXoOh-VINmYc9U93u9U6-4" value="MAYA" style="ellipse;whiteSpace=wrap;html=1;fillColor=none;" vertex="1" parent="1">
          <mxGeometry x="110" y="460" width="120" height="50" as="geometry" />
        </mxCell>
        <mxCell id="YXoOh-VINmYc9U93u9U6-5" value="37 TAHUN" style="ellipse;whiteSpace=wrap;html=1;fillColor=none;" vertex="1" parent="1">
          <mxGeometry x="110" y="520" width="120" height="50" as="geometry" />
        </mxCell>
        <mxCell id="YXoOh-VINmYc9U93u9U6-7" value="" style="endArrow=none;html=1;rounded=0;entryX=0;entryY=0.5;entryDx=0;entryDy=0;" edge="1" parent="1" source="YXoOh-VINmYc9U93u9U6-4" target="wjgCKjhuGCVVVPZoO-Zn-10">
          <mxGeometry width="50" height="50" relative="1" as="geometry">
            <mxPoint x="230" y="535" as="sourcePoint" />
            <mxPoint x="300.71067811865476" y="485" as="targetPoint" />
          </mxGeometry>
        </mxCell>
        <mxCell id="YXoOh-VINmYc9U93u9U6-8" value="" style="endArrow=none;html=1;rounded=0;entryX=0;entryY=1;entryDx=0;entryDy=0;" edge="1" parent="1" target="wjgCKjhuGCVVVPZoO-Zn-10">
          <mxGeometry width="50" height="50" relative="1" as="geometry">
            <mxPoint x="230" y="544.84" as="sourcePoint" />
            <mxPoint x="280" y="544.84" as="targetPoint" />
          </mxGeometry>
        </mxCell>
        <mxCell id="YXoOh-VINmYc9U93u9U6-9" value="" style="endArrow=none;html=1;rounded=0;exitX=0.5;exitY=0;exitDx=0;exitDy=0;" edge="1" parent="1" source="YXoOh-VINmYc9U93u9U6-10">
          <mxGeometry width="50" height="50" relative="1" as="geometry">
            <mxPoint x="400" y="590" as="sourcePoint" />
            <mxPoint x="400" y="520" as="targetPoint" />
          </mxGeometry>
        </mxCell>
        <mxCell id="YXoOh-VINmYc9U93u9U6-10" value="ADALAH SEORANG" style="rhombus;whiteSpace=wrap;html=1;fillColor=none;" vertex="1" parent="1">
          <mxGeometry x="335" y="580" width="130" height="130" as="geometry" />
        </mxCell>
        <mxCell id="YXoOh-VINmYc9U93u9U6-11" value="&lt;font style=&quot;font-size: 18px;&quot;&gt;DIREKTUR PEMASARAN&lt;/font&gt;" style="rounded=0;whiteSpace=wrap;html=1;fillStyle=hatch;fillColor=none;" vertex="1" parent="1">
          <mxGeometry x="290" y="780" width="220" height="70" as="geometry" />
        </mxCell>
        <mxCell id="YXoOh-VINmYc9U93u9U6-12" value="" style="endArrow=none;html=1;rounded=0;entryX=0.5;entryY=1;entryDx=0;entryDy=0;exitX=0.5;exitY=0;exitDx=0;exitDy=0;" edge="1" parent="1" source="YXoOh-VINmYc9U93u9U6-11" target="YXoOh-VINmYc9U93u9U6-10">
          <mxGeometry width="50" height="50" relative="1" as="geometry">
            <mxPoint x="380" y="770" as="sourcePoint" />
            <mxPoint x="430" y="720" as="targetPoint" />
          </mxGeometry>
        </mxCell>
        <mxCell id="YXoOh-VINmYc9U93u9U6-13" value="STARTUP TEKNOLOGI" style="ellipse;whiteSpace=wrap;html=1;fillColor=none;" vertex="1" parent="1">
          <mxGeometry x="270" y="890" width="120" height="50" as="geometry" />
        </mxCell>
        <mxCell id="YXoOh-VINmYc9U93u9U6-14" value="JAKARTA PUSAT, INDONESIA" style="ellipse;whiteSpace=wrap;html=1;fillColor=none;" vertex="1" parent="1">
          <mxGeometry x="420" y="890" width="120" height="50" as="geometry" />
        </mxCell>
        <mxCell id="YXoOh-VINmYc9U93u9U6-15" value="" style="endArrow=none;html=1;rounded=0;exitX=0.5;exitY=0;exitDx=0;exitDy=0;entryX=0.181;entryY=1.002;entryDx=0;entryDy=0;entryPerimeter=0;" edge="1" parent="1" source="YXoOh-VINmYc9U93u9U6-13" target="YXoOh-VINmYc9U93u9U6-11">
          <mxGeometry width="50" height="50" relative="1" as="geometry">
            <mxPoint x="290" y="900" as="sourcePoint" />
            <mxPoint x="340" y="850" as="targetPoint" />
            <Array as="points">
              <mxPoint x="330" y="880" />
            </Array>
          </mxGeometry>
        </mxCell>
        <mxCell id="YXoOh-VINmYc9U93u9U6-17" value="" style="endArrow=none;html=1;rounded=0;exitX=0.5;exitY=0;exitDx=0;exitDy=0;entryX=0.181;entryY=1.002;entryDx=0;entryDy=0;entryPerimeter=0;" edge="1" parent="1">
          <mxGeometry width="50" height="50" relative="1" as="geometry">
            <mxPoint x="479.68" y="890" as="sourcePoint" />
            <mxPoint x="479.68" y="850" as="targetPoint" />
            <Array as="points">
              <mxPoint x="479.68" y="880" />
            </Array>
          </mxGeometry>
        </mxCell>
        <mxCell id="YXoOh-VINmYc9U93u9U6-18" value="HOBI" style="ellipse;whiteSpace=wrap;html=1;fillColor=none;" vertex="1" parent="1">
          <mxGeometry x="540" y="460" width="120" height="50" as="geometry" />
        </mxCell>
        <mxCell id="YXoOh-VINmYc9U93u9U6-19" value="" style="endArrow=none;html=1;rounded=0;entryX=0;entryY=0.5;entryDx=0;entryDy=0;exitX=1;exitY=0.5;exitDx=0;exitDy=0;" edge="1" parent="1" source="wjgCKjhuGCVVVPZoO-Zn-10" target="YXoOh-VINmYc9U93u9U6-18">
          <mxGeometry width="50" height="50" relative="1" as="geometry">
            <mxPoint x="500" y="490" as="sourcePoint" />
            <mxPoint x="550" y="440" as="targetPoint" />
          </mxGeometry>
        </mxCell>
        <mxCell id="YXoOh-VINmYc9U93u9U6-20" value="LARI MARATON" style="ellipse;whiteSpace=wrap;html=1;fillColor=none;" vertex="1" parent="1">
          <mxGeometry x="700" y="390" width="120" height="50" as="geometry" />
        </mxCell>
        <mxCell id="YXoOh-VINmYc9U93u9U6-21" value="BERMAIN PIANO" style="ellipse;whiteSpace=wrap;html=1;fillColor=none;" vertex="1" parent="1">
          <mxGeometry x="700" y="535" width="120" height="50" as="geometry" />
        </mxCell>
        <mxCell id="YXoOh-VINmYc9U93u9U6-22" value="MENGHADIRI PAMERAN SENI" style="ellipse;whiteSpace=wrap;html=1;fillColor=none;" vertex="1" parent="1">
          <mxGeometry x="700" y="460" width="120" height="50" as="geometry" />
        </mxCell>
        <mxCell id="YXoOh-VINmYc9U93u9U6-23" value="" style="endArrow=none;html=1;rounded=0;entryX=0;entryY=0.5;entryDx=0;entryDy=0;exitX=0.903;exitY=0.213;exitDx=0;exitDy=0;exitPerimeter=0;" edge="1" parent="1" source="YXoOh-VINmYc9U93u9U6-18" target="YXoOh-VINmYc9U93u9U6-20">
          <mxGeometry width="50" height="50" relative="1" as="geometry">
            <mxPoint x="650" y="470" as="sourcePoint" />
            <mxPoint x="700" y="420" as="targetPoint" />
          </mxGeometry>
        </mxCell>
        <mxCell id="YXoOh-VINmYc9U93u9U6-24" value="" style="endArrow=none;html=1;rounded=0;entryX=0;entryY=0.5;entryDx=0;entryDy=0;exitX=1;exitY=0.5;exitDx=0;exitDy=0;" edge="1" parent="1" source="YXoOh-VINmYc9U93u9U6-18" target="YXoOh-VINmYc9U93u9U6-22">
          <mxGeometry width="50" height="50" relative="1" as="geometry">
            <mxPoint x="650" y="530" as="sourcePoint" />
            <mxPoint x="700" y="480" as="targetPoint" />
          </mxGeometry>
        </mxCell>
        <mxCell id="YXoOh-VINmYc9U93u9U6-25" value="" style="endArrow=none;html=1;rounded=0;entryX=0;entryY=0.5;entryDx=0;entryDy=0;exitX=0.946;exitY=0.725;exitDx=0;exitDy=0;exitPerimeter=0;" edge="1" parent="1" source="YXoOh-VINmYc9U93u9U6-18" target="YXoOh-VINmYc9U93u9U6-21">
          <mxGeometry width="50" height="50" relative="1" as="geometry">
            <mxPoint x="600" y="530" as="sourcePoint" />
            <mxPoint x="650" y="480" as="targetPoint" />
          </mxGeometry>
        </mxCell>
        <mxCell id="YXoOh-VINmYc9U93u9U6-26" value="MENIKAH" style="ellipse;whiteSpace=wrap;html=1;fillColor=none;" vertex="1" parent="1">
          <mxGeometry x="100" y="230" width="120" height="50" as="geometry" />
        </mxCell>
        <mxCell id="YXoOh-VINmYc9U93u9U6-27" value="" style="endArrow=none;html=1;rounded=0;entryX=1;entryY=0.5;entryDx=0;entryDy=0;exitX=0;exitY=0;exitDx=0;exitDy=0;" edge="1" parent="1" source="wjgCKjhuGCVVVPZoO-Zn-10" target="YXoOh-VINmYc9U93u9U6-26">
          <mxGeometry width="50" height="50" relative="1" as="geometry">
            <mxPoint x="410" y="450" as="sourcePoint" />
            <mxPoint x="460" y="400" as="targetPoint" />
          </mxGeometry>
        </mxCell>
        <mxCell id="YXoOh-VINmYc9U93u9U6-28" value="MEMPUNYAI" style="rhombus;whiteSpace=wrap;html=1;fillColor=none;" vertex="1" parent="1">
          <mxGeometry x="350" y="215" width="90" height="85" as="geometry" />
        </mxCell>
        <mxCell id="YXoOh-VINmYc9U93u9U6-29" value="" style="endArrow=none;html=1;rounded=0;entryX=0;entryY=0.5;entryDx=0;entryDy=0;" edge="1" parent="1" target="YXoOh-VINmYc9U93u9U6-28">
          <mxGeometry width="50" height="50" relative="1" as="geometry">
            <mxPoint x="220" y="257" as="sourcePoint" />
            <mxPoint x="320" y="280" as="targetPoint" />
          </mxGeometry>
        </mxCell>
        <mxCell id="YXoOh-VINmYc9U93u9U6-30" value="" style="endArrow=none;html=1;rounded=0;exitX=0.526;exitY=0.001;exitDx=0;exitDy=0;entryX=0.5;entryY=1;entryDx=0;entryDy=0;exitPerimeter=0;" edge="1" parent="1" source="wjgCKjhuGCVVVPZoO-Zn-10" target="YXoOh-VINmYc9U93u9U6-28">
          <mxGeometry width="50" height="50" relative="1" as="geometry">
            <mxPoint x="320" y="340" as="sourcePoint" />
            <mxPoint x="370" y="290" as="targetPoint" />
          </mxGeometry>
        </mxCell>
        <mxCell id="YXoOh-VINmYc9U93u9U6-31" value="&lt;font style=&quot;font-size: 18px;&quot;&gt;ANAK&lt;/font&gt;" style="rounded=0;whiteSpace=wrap;html=1;fillStyle=hatch;fillColor=none;" vertex="1" parent="1">
          <mxGeometry x="490" y="232.5" width="140" height="50" as="geometry" />
        </mxCell>
        <mxCell id="YXoOh-VINmYc9U93u9U6-32" value="" style="endArrow=none;html=1;rounded=0;entryX=1;entryY=0.5;entryDx=0;entryDy=0;exitX=0;exitY=0.5;exitDx=0;exitDy=0;" edge="1" parent="1" source="YXoOh-VINmYc9U93u9U6-31" target="YXoOh-VINmYc9U93u9U6-28">
          <mxGeometry width="50" height="50" relative="1" as="geometry">
            <mxPoint x="520" y="310" as="sourcePoint" />
            <mxPoint x="570" y="260" as="targetPoint" />
          </mxGeometry>
        </mxCell>
        <mxCell id="YXoOh-VINmYc9U93u9U6-33" value="Lily(6)" style="ellipse;whiteSpace=wrap;html=1;fillColor=none;" vertex="1" parent="1">
          <mxGeometry x="670" y="190" width="120" height="50" as="geometry" />
        </mxCell>
        <mxCell id="YXoOh-VINmYc9U93u9U6-34" value="Leo(4)" style="ellipse;whiteSpace=wrap;html=1;fillColor=none;" vertex="1" parent="1">
          <mxGeometry x="670" y="260" width="120" height="50" as="geometry" />
        </mxCell>
        <mxCell id="YXoOh-VINmYc9U93u9U6-35" value="" style="endArrow=none;html=1;rounded=0;entryX=0;entryY=0.5;entryDx=0;entryDy=0;exitX=1;exitY=1;exitDx=0;exitDy=0;" edge="1" parent="1" source="YXoOh-VINmYc9U93u9U6-31" target="YXoOh-VINmYc9U93u9U6-34">
          <mxGeometry width="50" height="50" relative="1" as="geometry">
            <mxPoint x="620" y="330" as="sourcePoint" />
            <mxPoint x="670" y="280" as="targetPoint" />
          </mxGeometry>
        </mxCell>
        <mxCell id="YXoOh-VINmYc9U93u9U6-36" value="" style="endArrow=none;html=1;rounded=0;entryX=0;entryY=0.5;entryDx=0;entryDy=0;" edge="1" parent="1" target="YXoOh-VINmYc9U93u9U6-33">
          <mxGeometry width="50" height="50" relative="1" as="geometry">
            <mxPoint x="630" y="232.5" as="sourcePoint" />
            <mxPoint x="680" y="182.5" as="targetPoint" />
          </mxGeometry>
        </mxCell>
      </root>
    </mxGraphModel>
  </diagram>
</mxfile>
